<svg width="18" height="18" viewBox="0 0 18 18" fill="none" xmlns="http://www.w3.org/2000/svg">
<path d="M10.8974 7.10293L7.10244 10.8979C6.61494 10.4104 6.31494 9.74293 6.31494 9.00043C6.31494 7.51543 7.51494 6.31543 8.99994 6.31543C9.74244 6.31543 10.4099 6.61543 10.8974 7.10293Z" stroke="#777777" stroke-width="1.125" stroke-linecap="round" stroke-linejoin="round"/>
<path d="M13.3649 4.32785C12.0524 3.33785 10.5524 2.79785 8.99988 2.79785C6.35238 2.79785 3.88488 4.35785 2.16738 7.05785C1.49238 8.11535 1.49238 9.89285 2.16738 10.9504C2.75988 11.8804 3.44988 12.6829 4.19988 13.3279" stroke="#777777" stroke-width="1.125" stroke-linecap="round" stroke-linejoin="round"/>
<path d="M6.31494 14.6473C7.16994 15.0073 8.07744 15.2023 8.99994 15.2023C11.6474 15.2023 14.1149 13.6423 15.8324 10.9423C16.5074 9.88477 16.5074 8.10727 15.8324 7.04977C15.5849 6.65977 15.3149 6.29227 15.0374 5.94727" stroke="#777777" stroke-width="1.125" stroke-linecap="round" stroke-linejoin="round"/>
<path d="M11.6316 9.52539C11.4366 10.5829 10.5741 11.4454 9.5166 11.6404" stroke="#777777" stroke-width="1.125" stroke-linecap="round" stroke-linejoin="round"/>
<path d="M7.10348 10.8975L1.50098 16.5" stroke="#777777" stroke-width="1.125" stroke-linecap="round" stroke-linejoin="round"/>
<path d="M16.499 1.5L10.8965 7.1025" stroke="#777777" stroke-width="1.125" stroke-linecap="round" stroke-linejoin="round"/>
</svg>
